v -0.001800014405 0.2168001533 -1
vn 0 1 -1
v 0.2821999192 0.4127999246 -1
vn 0 1 -1
v 0.1961998641 0.0668001771 -1
vn 0 1 -1
v -0.1957999468 0.0668001771 -1
vn 0 1 -1
v -0.1197998896 -0.1751999557 -1
vn 0 1 -1
v -0.4597998857 -0.1572000682 -1
vn 0 1 -1
v -0.2857999802 0.4107998013 -1
vn 0 1 -1
v 0.002199924551 -0.5092001557 -1
vn 0 1 -1
v 0.1221999228 -0.1751999557 -1
vn 0 1 -1
v 0.4602001309 -0.1572000682 -1
vn 0 1 -1
f 1/0/1 2/0/2 3/0/3 
f 4/0/4 1/0/1 3/0/3 
f 4/0/4 3/0/3 5/0/5 
f 4/0/4 5/0/5 6/0/6 
f 9/0/9 8/0/8 5/0/5 
f 10/0/10 9/0/9 3/0/3 
f 3/0/3 9/0/9 5/0/5 
f 4/0/4 7/0/7 1/0/1 
